<svg width="28" height="28" viewBox="0 0 28 28" fill="none" xmlns="http://www.w3.org/2000/svg">
<path d="M4 13.9992C4 19.522 8.47651 23.9982 14.0007 23.9982C19.5224 23.9982 24 19.522 24 13.9992C24 8.47611 19.5224 3.99995 14.0007 3.99995C8.47651 3.99995 4 8.47611 4 13.9992Z" fill="url(#paint0_linear_302_3907)"/>
<path d="M4.23117 16.147C4.07978 15.4552 4 14.7366 4 13.9993C4 13.2675 4.0786 12.554 4.22781 11.8669H23.7721C23.9098 12.5005 23.9873 13.1566 23.9986 13.8287V14.1699C23.9872 14.8475 23.9085 15.5087 23.7688 16.147H4.23117Z" fill="black"/>
<path d="M13.7749 23.9958C10.7897 23.9297 8.12757 22.5564 6.3382 20.4257H21.6616C19.8722 22.5564 17.2103 23.9297 14.2264 23.9958H13.7749Z" fill="black"/>
<path d="M14.1709 4.00146C17.1844 4.05175 19.8738 5.43527 21.6743 7.58794H6.32544C8.12596 5.43527 10.8157 4.05175 13.8305 4.00146H14.1709Z" fill="black"/>
<defs>
<linearGradient id="paint0_linear_302_3907" x1="4.00036" y1="14.006" x2="23.9986" y2="14.006" gradientUnits="userSpaceOnUse">
<stop stop-color="#FAA61A"/>
<stop offset="1" stop-color="#FFE100"/>
</linearGradient>
</defs>
</svg>
