<svg width="16" height="16" viewBox="0 0 16 16" fill="none" xmlns="http://www.w3.org/2000/svg">
<path d="M8.5 4.75C8.5 4.33579 8.16421 4 7.75 4C7.33579 4 7 4.33579 7 4.75V8.75C7 9.05642 7.18641 9.33203 7.47081 9.4461L9.97523 10.4506C10.3597 10.6048 10.7963 10.4181 10.9505 10.0337C11.1047 9.64924 10.9181 9.21259 10.5336 9.0584L8.5 8.24274V4.75Z" fill="#B8C1CC"/>
<path fill-rule="evenodd" clip-rule="evenodd" d="M8 1C4.13401 1 1 4.13401 1 8C1 11.866 4.13401 15 8 15C11.866 15 15 11.866 15 8C15 4.13401 11.866 1 8 1ZM2.5 8C2.5 4.96243 4.96243 2.5 8 2.5C11.0376 2.5 13.5 4.96243 13.5 8C13.5 11.0376 11.0376 13.5 8 13.5C4.96243 13.5 2.5 11.0376 2.5 8Z" fill="#B8C1CC"/>
</svg>
