<svg width="16" height="16" viewBox="0 0 16 16" fill="none" xmlns="http://www.w3.org/2000/svg">
<path fill-rule="evenodd" clip-rule="evenodd" d="M2.5 11.5C2.5 11.0858 2.83579 10.75 3.25 10.75L10.9393 10.75L9.96967 9.78033C9.67678 9.48744 9.67678 9.01256 9.96967 8.71967C10.2626 8.42678 10.7374 8.42678 11.0303 8.71967L13.2805 10.9698C13.317 11.0064 13.349 11.0458 13.3764 11.0873C13.4565 11.2086 13.4977 11.348 13.4999 11.4879L13.5 11.5L13.4999 11.5121C13.4984 11.609 13.4785 11.7014 13.4435 11.786C13.4069 11.8749 13.3525 11.9581 13.2803 12.0303L11.0303 14.2803C10.7374 14.5732 10.2626 14.5732 9.96967 14.2803C9.67678 13.9874 9.67678 13.5126 9.96967 13.2197L10.9393 12.25L3.25 12.25C2.83579 12.25 2.5 11.9142 2.5 11.5ZM13.5 4.50006C13.5 4.91427 13.1642 5.25006 12.75 5.25006L5.06067 5.25006L6.03034 6.21973C6.32323 6.51262 6.32323 6.9875 6.03034 7.28039C5.73745 7.57328 5.26257 7.57328 4.96968 7.28039L2.72217 5.03288C2.71307 5.02387 2.7042 5.01462 2.69557 5.00515C2.65666 4.9625 2.62356 4.91643 2.59628 4.86796C2.53498 4.75926 2.5 4.63375 2.5 4.50006C2.5 4.29176 2.58492 4.10329 2.72202 3.96739L4.96968 1.71973C5.26257 1.42684 5.73745 1.42684 6.03034 1.71973C6.32323 2.01262 6.32323 2.4875 6.03034 2.78039L5.06067 3.75006L12.75 3.75006C13.1642 3.75006 13.5 4.08585 13.5 4.50006Z" fill="#B8C1CC"/>
</svg>
