<svg width="16" height="16" viewBox="0 0 16 16" fill="none" xmlns="http://www.w3.org/2000/svg">
<path fill-rule="evenodd" clip-rule="evenodd" d="M8 13.5C11.0376 13.5 13.5 11.0376 13.5 8C13.5 4.96243 11.0376 2.5 8 2.5C4.96243 2.5 2.5 4.96243 2.5 8C2.5 11.0376 4.96243 13.5 8 13.5ZM15 8C15 11.866 11.866 15 8 15C4.13401 15 1 11.866 1 8C1 4.13401 4.13401 1 8 1C11.866 1 15 4.13401 15 8Z" fill="#B8C1CC"/>
<path fill-rule="evenodd" clip-rule="evenodd" d="M8 12C7.58579 12 7.25 11.6642 7.25 11.25V7.75C7.25 7.33579 7.58579 7 8 7C8.41421 7 8.75 7.33579 8.75 7.75V11.25C8.75 11.6642 8.41421 12 8 12Z" fill="#B8C1CC"/>
<path d="M7.10002 4.9C7.10002 4.40295 7.50297 4 8.00002 4C8.49708 4 8.90002 4.40295 8.90002 4.9C8.90002 5.39706 8.49708 5.8 8.00002 5.8C7.50297 5.8 7.10002 5.39706 7.10002 4.9Z" fill="#B8C1CC"/>
</svg>
