<svg width="28" height="28" viewBox="0 0 28 28" fill="none" xmlns="http://www.w3.org/2000/svg">
<path d="M23 11.9761C23 7.01915 18.971 3 14 3C9.02902 3 5 7.01915 5 11.9761C5 15.5086 7.17918 19.7724 11.4804 24.836C12.6573 26.2216 14.7395 26.3948 16.1311 25.2229C16.2712 25.1049 16.4011 24.9755 16.5196 24.836C20.8208 19.7724 23 15.5086 23 11.9761ZM14.8395 23.7024C14.2913 24.1641 13.4711 24.0958 13.0074 23.55C8.98341 18.8127 7 14.9319 7 11.9761C7 8.11815 10.1344 4.99141 14 4.99141C17.8656 4.99141 21 8.11815 21 11.9761C21 14.9319 19.0166 18.8127 14.9926 23.55C14.9459 23.605 14.8947 23.6559 14.8395 23.7024ZM10 11.9613C10 9.76225 11.7914 7.97851 14 7.97851C16.2086 7.97851 18 9.76225 18 11.9613C18 14.1604 16.2086 15.9441 14 15.9441C11.7914 15.9441 10 14.1604 10 11.9613ZM12 11.9613C12 13.0606 12.896 13.9527 14 13.9527C15.104 13.9527 16 13.0606 16 11.9613C16 10.8621 15.104 9.96992 14 9.96992C12.896 9.96992 12 10.8621 12 11.9613Z" fill="#2C2D2E"/>
</svg>
