<svg width="28" height="28" viewBox="0 0 28 28" fill="none" xmlns="http://www.w3.org/2000/svg">
<path d="M5.80375 6.65549C7.85423 4.3375 10.9148 2.98067 13.9996 3.00021C13.9923 6.64205 14.0166 10.2851 13.9874 13.927C13.5098 13.9416 13.0309 13.9147 12.5532 13.9428C12.0852 13.9673 11.661 14.3874 11.6744 14.8673C11.6623 18.1623 11.6744 21.4573 11.6696 24.7523C9.32372 24.2504 7.1444 22.9705 5.59712 21.1239C3.90034 19.1418 2.96687 16.5283 3.0009 13.916C3.00819 11.2585 4.02675 8.62296 5.80375 6.65549ZM11.3718 9.43877C10.8904 9.62074 10.5331 10.1007 10.5124 10.6185C10.4444 11.3989 11.1627 12.1256 11.9406 12.056C12.7525 12.0364 13.4028 11.1632 13.1779 10.3743C13.009 9.59876 12.0986 9.12857 11.3718 9.43877Z" fill="#00B956"/>
<path d="M15.3584 14.2764C15.3621 10.538 15.356 6.79972 15.3609 3.0614C17.7432 3.34718 20.0246 4.44144 21.7238 6.14634C23.6382 8.01856 24.8184 10.6211 24.9764 13.3018C25.1527 15.9373 24.3359 18.6241 22.7193 20.7076C20.4695 23.6655 16.6578 25.3558 12.9652 24.9369C12.9773 21.7371 12.9384 18.5362 12.9834 15.3377C13.5559 15.2131 14.1503 15.3682 14.7252 15.2534C15.1494 15.1435 15.3937 14.7002 15.3584 14.2764ZM14.6486 17.3857C13.6945 17.6727 13.4307 19.0564 14.2086 19.6793C14.9598 20.4121 16.422 19.8674 16.456 18.8C16.5703 17.8535 15.5383 17.0218 14.6486 17.3857ZM17.8161 17.4114C17.4369 17.5701 17.1269 17.906 17.0261 18.3102C16.7854 19.0992 17.4284 19.9834 18.2427 20.0139C19.0717 20.0982 19.8289 19.2726 19.6733 18.4495C19.5627 17.6129 18.5855 17.0535 17.8161 17.4114ZM21.0906 17.3967C20.619 17.5726 20.2592 18.0281 20.2215 18.5362C20.1316 19.2873 20.7831 20.0176 21.5354 20.0164C22.3547 20.064 23.0767 19.2299 22.9028 18.4202C22.7789 17.6141 21.8442 17.0743 21.0906 17.3967Z" fill="#00B956"/>
</svg>
