<svg width="28" height="28" viewBox="0 0 28 28" fill="none" xmlns="http://www.w3.org/2000/svg">
<path fill-rule="evenodd" clip-rule="evenodd" d="M10.6022 4.0849C12.627 3.79031 14.4806 4.2682 15.7292 5.42753C16.8832 6.47617 17.4695 7.9658 17.3183 9.54768C17.0531 12.4728 15.5966 14.8277 11.5103 18.7092L4.83221 18.93C4.83221 18.93 9.46747 14.8093 11.2265 12.8043C12.3618 11.4985 12.8535 10.1 12.3805 9.16203C12.078 8.57284 11.4163 8.27884 10.6028 8.31574L10.6022 4.0849ZM4 19.6109L4.01868 23.64H17.5641V19.224L4 19.6109ZM4.18922 12.3805C3.96204 7.7819 5.89159 4.96749 9.82663 4.1581L9.84531 8.46274C9.01371 8.79364 8.20019 9.41972 8.38881 12.0127L4.18922 12.3805Z" fill="black"/>
<rect x="19.7095" y="19.3494" width="4.29058" height="4.29058" fill="#3FCBFF"/>
</svg>
